<?xml version="1.0" standalone="no"?>
<!DOCTYPE svg PUBLIC "-//W3C//DTD SVG 20010904//EN"
 "http://www.w3.org/TR/2001/REC-SVG-20010904/DTD/svg10.dtd">
<svg version="1.0" xmlns="http://www.w3.org/2000/svg"
 width="512.000000pt" height="512.000000pt" viewBox="0 0 512.000000 512.000000"
 preserveAspectRatio="xMidYMid meet">
<metadata>
Created by potrace 1.11, written by Peter Selinger 2001-2013
</metadata>
<g transform="translate(0.000000,512.000000) scale(0.100000,-0.100000)"
fill="#000000" stroke="none">
<path d="M2310 5113 c-614 -63 -1161 -328 -1591 -769 -374 -386 -605 -850
-696 -1399 -26 -159 -26 -612 0 -770 93 -560 318 -1010 702 -1404 368 -378
821 -625 1330 -725 181 -36 296 -46 505 -46 209 0 324 10 505 46 509 100 962
347 1330 725 384 394 609 844 702 1404 26 158 26 611 0 770 -54 328 -165 643
-316 900 -334 567 -858 982 -1475 1169 -132 41 -333 81 -468 96 -90 9 -447 12
-528 3z m395 -123 c146 -10 330 -37 429 -63 l50 -13 -67 -37 c-37 -21 -111
-73 -164 -115 l-98 -77 -165 4 c-380 7 -739 -73 -1080 -241 l-124 -61 -176 58
c-96 31 -179 61 -183 65 -5 4 22 30 60 57 315 231 768 391 1196 422 161 12
158 12 322 1z m455 -786 l307 -309 -216 -587 c-119 -323 -219 -589 -222 -592
-3 -3 -230 -49 -505 -101 -274 -53 -506 -98 -515 -101 -11 -3 -150 133 -449
441 l-433 446 13 72 c29 162 134 408 254 592 61 94 70 104 146 149 171 102
390 191 589 240 210 52 331 66 550 62 l174 -4 307 -308z m1135 61 c173 -175
317 -375 431 -598 54 -106 154 -342 154 -364 0 -3 -25 34 -56 83 -112 180
-303 402 -446 520 -43 36 -50 47 -73 128 -31 107 -107 259 -182 363 l-54 76
63 -54 c35 -29 108 -99 163 -154z m-348 -452 l293 -17 94 -88 c217 -203 396
-462 500 -724 l36 -91 -15 -104 c-44 -316 -118 -578 -221 -783 -25 -50 -51
-99 -58 -108 -11 -15 -76 -24 -448 -58 -240 -22 -440 -40 -445 -40 -11 0 -486
826 -486 846 0 6 96 275 214 598 151 415 218 586 229 586 8 0 147 -7 307 -17z
m-3620 -493 l2 -209 -39 -121 c-74 -223 -117 -519 -109 -747 3 -84 2 -98 -8
-80 -24 42 -32 93 -42 252 -21 345 34 707 155 1018 21 53 38 97 39 97 0 0 1
-94 2 -210z m1033 -410 c189 -195 378 -391 420 -435 l78 -80 -44 -460 c-24
-253 -43 -468 -44 -477 0 -13 -91 -47 -414 -154 l-413 -138 -64 51 c-117 94
-290 281 -397 429 -42 58 -55 87 -72 156 -86 361 -75 731 31 1090 l32 107 61
45 c106 79 423 230 467 224 9 -2 170 -163 359 -358z m3203 -1247 c3 -27 14
-134 23 -240 l17 -191 -76 -105 c-173 -237 -394 -452 -567 -550 -143 -81 -458
-162 -790 -202 l-55 -7 -62 259 c-34 142 -63 265 -65 274 -2 11 125 150 337
370 l339 354 436 41 c239 23 440 42 446 43 6 0 14 -20 17 -46z m-2197 -599
l450 -195 64 -262 c35 -144 65 -267 67 -273 6 -15 -118 -69 -212 -92 -145 -36
-431 -72 -575 -72 -111 0 -343 62 -540 145 -190 79 -526 283 -571 345 -15 20
-19 54 -25 186 l-7 161 314 106 c564 192 509 176 549 160 19 -8 238 -102 486
-209z"/>
</g>
</svg>
